<svg width="60" height="16" viewBox="0 0 60 16" fill="none" xmlns="http://www.w3.org/2000/svg">
<path d="M6.37281 0.265186V11.4254C6.37281 11.779 6.35869 12.1694 6.33046 12.5967C6.31635 13.0092 6.23872 13.3996 6.09757 13.768C5.95642 14.1215 5.73764 14.4236 5.44123 14.674C5.15894 14.9098 4.74961 15.0276 4.21325 15.0276C3.74746 15.0276 3.35931 14.9392 3.04878 14.7624C2.75237 14.5856 2.51242 14.3646 2.32893 14.0994C2.15956 13.8343 2.03252 13.5543 1.94783 13.2597C1.87726 12.9503 1.84197 12.6777 1.84197 12.442H0C0.0282295 13.5764 0.381098 14.453 1.05861 15.0718C1.73611 15.6906 2.75237 16 4.10739 16C5.08131 16 5.85056 15.8527 6.41515 15.558C6.97974 15.2486 7.39612 14.8656 7.6643 14.4088C7.9466 13.9374 8.12303 13.4291 8.19361 12.884C8.26418 12.3389 8.29947 11.8306 8.29947 11.3591V0.265186H6.37281Z" fill="#313131"/>
<path d="M20.2291 11.1823L22.2616 15.7348H24.3153L17.4132 0.265186H16.3546L10.0877 15.7348H11.0616L12.9247 11.1823H20.2291ZM19.7845 10.1878H13.327L16.3758 2.74033H16.4605L19.7845 10.1878Z" fill="#313131"/>
<path d="M30.4136 10.6519H42.9856V9.25967H30.4136V10.6519Z" fill="#313131"/>
<path d="M56.1267 15.7348H46.3875L50.389 11.0718C50.7419 10.6298 51.1159 10.151 51.5111 9.63536C51.9205 9.11971 52.2945 8.57459 52.6333 8C52.972 7.42542 53.2543 6.82873 53.4801 6.20995C53.706 5.59116 53.8189 4.95764 53.8189 4.30939C53.8189 3.29282 53.5578 2.48251 53.0355 1.87845C52.5274 1.2744 51.8711 0.972375 51.0665 0.972375C50.5866 0.972375 50.1844 1.06814 49.8597 1.25967C49.5492 1.4512 49.2881 1.70902 49.0764 2.03315C48.8787 2.34254 48.7305 2.71087 48.6317 3.13812C48.5329 3.55065 48.4624 3.98527 48.42 4.44199H46.3028C46.3028 3.82321 46.4228 3.24125 46.6627 2.69613C46.9027 2.15101 47.2344 1.67956 47.6578 1.28177C48.0954 0.883977 48.6035 0.574585 49.1822 0.353591C49.7609 0.117864 50.389 0 51.0665 0C51.8287 0 52.5133 0.117864 53.1202 0.353591C53.7272 0.574585 54.2353 0.883977 54.6446 1.28177C55.0539 1.67956 55.3645 2.14365 55.5762 2.67403C55.802 3.18969 55.9149 3.73481 55.9149 4.30939C55.9149 5.03131 55.8444 5.65009 55.7032 6.16575C55.5762 6.6814 55.3645 7.18232 55.0681 7.66851C54.7858 8.13997 54.4117 8.64089 53.9459 9.17128C53.4943 9.70166 52.9438 10.3352 52.2945 11.0718L49.5421 14.1437H56.1267V15.7348Z" fill="#313131"/>
<path d="M60 15.7348H58.2004V2.34254L56.5701 4.1105L55.9985 3.49171L58.9837 0.265193H60V15.7348Z" fill="#313131"/>
</svg>
