<svg width="24" height="24" viewBox="0 0 24 24" fill="none" xmlns="http://www.w3.org/2000/svg">
<path d="M8.5625 22.4436V15.8711H15.4374V18.5592C15.4357 19.59 15.0249 20.578 14.2953 21.3063C13.5658 22.0345 12.577 22.4436 11.5462 22.4436H8.5625Z" fill="white" fill-opacity="0.2"/>
<path d="M11.5326 22.9997H8.02637V15.3135H15.9738V18.5585C15.9721 19.7358 15.5036 20.8644 14.671 21.6969C13.8385 22.5294 12.7099 22.998 11.5326 22.9997ZM9.13326 21.886H11.5326C12.4158 21.886 13.2628 21.5357 13.8879 20.9118C14.513 20.288 14.8652 19.4416 14.867 18.5585V16.4273H9.13326V21.886Z" fill="white"/>
<path d="M15.6025 15.6851V8.71387H22.4775V11.7939C22.4784 12.3046 22.3787 12.8104 22.1839 13.2825C21.989 13.7545 21.7031 14.1835 21.3423 14.545C20.9815 14.9065 20.553 15.1932 20.0813 15.3888C19.6095 15.5844 19.1039 15.6851 18.5932 15.6851H15.6025Z" fill="white" fill-opacity="0.2"/>
<path d="M18.5588 16.2422H15.0457V8.15723H23V11.7941C23 12.9726 22.5323 14.103 21.6996 14.937C20.8669 15.771 19.7373 16.2404 18.5588 16.2422ZM16.1594 15.1285H18.5588C19.4419 15.1266 20.2883 14.7745 20.9121 14.1494C21.5359 13.5243 21.8863 12.6773 21.8863 11.7941V9.25033H16.1594V15.1285Z" fill="white"/>
<path d="M15.4168 8.71387H8.57617V15.6851H15.4168V8.71387Z" fill="white" fill-opacity="0.2"/>
<path d="M15.9738 16.2422H8.02637V8.15723H15.9738V16.2422ZM9.09884 15.1285H14.8326V9.25033H9.13326L9.09884 15.1285Z" fill="white"/>
<path d="M1.55688 8.56226V5.44102C1.55688 4.41082 1.96613 3.42281 2.69459 2.69435C3.42305 1.96589 4.41106 1.55664 5.44126 1.55664H8.3975V8.56226H1.55688Z" fill="white" fill-opacity="0.2"/>
<path d="M8.95437 9.085H1V5.44125C1.00182 4.26391 1.47032 3.13532 2.30282 2.30282C3.13532 1.47032 4.26391 1.00182 5.44125 1H8.95437V9.085ZM2.11375 7.97126H7.875V2.11375H5.44125C4.55874 2.11375 3.71238 2.46433 3.08835 3.08835C2.46433 3.71238 2.11375 4.55874 2.11375 5.44125V7.97126Z" fill="white"/>
<path d="M15.6025 8.56226V1.55664H18.5588C19.589 1.55664 20.577 1.96589 21.3055 2.69435C22.0339 3.42281 22.4432 4.41082 22.4432 5.44102V8.56226H15.6025Z" fill="white" fill-opacity="0.2"/>
<path d="M23 9.085H15.0457V1H18.5588C19.7361 1.00182 20.8647 1.47032 21.6972 2.30282C22.5297 3.13532 22.9982 4.26391 23 5.44125V9.085ZM16.1594 7.97126H21.8863V5.44125C21.8863 4.55874 21.5357 3.71238 20.9117 3.08835C20.2877 2.46433 19.4413 2.11375 18.5588 2.11375H16.1594V7.97126Z" fill="white"/>
<path d="M15.4168 1.55664H8.57617V8.52789H15.4168V1.55664Z" fill="white" fill-opacity="0.2"/>
<path d="M15.9738 9.085H8.02637V1H15.9738V9.085ZM9.09884 7.97126H14.8326V2.11375H9.13326L9.09884 7.97126Z" fill="white"/>
<path d="M1.55688 18.5592V15.8711H8.43187V22.4436H5.44126C4.41106 22.4436 3.42305 22.0343 2.69459 21.3059C1.96613 20.5774 1.55688 19.5894 1.55688 18.5592Z" fill="white" fill-opacity="0.2"/>
<path d="M8.95437 22.9997H5.44125C4.26391 22.998 3.13532 22.5294 2.30282 21.6969C1.47032 20.8644 1.00182 19.7358 1 18.5585V15.3135H8.95437V22.9997ZM2.11375 16.4273V18.5585C2.11375 19.441 2.46433 20.2874 3.08835 20.9114C3.71238 21.5354 4.55874 21.886 5.44125 21.886H7.875V16.4273H2.11375Z" fill="white"/>
<path d="M8.3975 8.71387H1.55688V15.6851H8.3975V8.71387Z" fill="white" fill-opacity="0.2"/>
<path d="M8.95437 16.2422H1V8.15723H8.95437V16.2422ZM2.11375 15.1285H7.875V9.25033H2.11375V15.1285Z" fill="white"/>
</svg>
